{{ $icon := . }}
<svg xmlns="http://www.w3.org/2000/svg" viewBox="0 0 24 24">
  {{ with (eq $icon "clipboard") }}
    <path d="M16 4h2a2 2 0 0 1 2 2v14a2 2 0 0 1-2 2H6a2 2 0 0 1-2-2V6a2 2 0 0 1 2-2h2"></path>
    <rect x="8" y="2" width="8" height="4" rx="1" ry="1"></rect>
  {{ end }}

  {{ with (eq $icon "edit") }}
    <path d="M12 20h9"></path>
    <path d="M16.5 3.5a2.121 2.121 0 0 1 3 3L7 19l-4 1 1-4L16.5 3.5z"></path>
  {{ end }}

  {{ with (eq $icon "edit-3") }}
    <path d="M12 20h9"></path>
    <path d="M16.5 3.5a2.121 2.121 0 0 1 3 3L7 19l-4 1 1-4L16.5 3.5z"></path>
  {{ end }}

  {{ with (eq $icon "facebook") }}
    <path d="M18 2h-3a5 5 0 0 0-5 5v3H7v4h3v8h4v-8h3l1-4h-4V7a1 1 0 0 1 1-1h3z"></path>
  {{ end }}

  {{ with (eq $icon "instagram") }}
    <rect x="2" y="2" width="20" height="20" rx="5" ry="5"></rect>
    <path d="M16 11.37A4 4 0 1 1 12.63 8 4 4 0 0 1 16 11.37z"></path>
    <line x1="17.5" y1="6.5" x2="17.5" y2="6.5"></line>
  {{ end }}

  {{ with (eq $icon "pintrest") }}
    <path d="M7.4 21.7a12.3 12.3 0 0 1 0-3.63l1.52-6.27a4.65 4.65 0 0 1-.37-1.87c0-1.76 1-3.07 2.28-3.07a1.59 1.59 0 0 1 1.6 1.78 25.12 25.12 0 0 1-1 4.2 1.83 1.83 0 0 0 1.87 2.28c2.24 0 4-2.36 4-5.78A5 5 0 0 0 12 4.21a5.46 5.46 0 0 0-5.7 5.47 5 5 0 0 0 .94 2.89.35.35 0 0 1 .08.36c-.09.4-.3 1.25-.35 1.43s-.18.28-.42.17c-1.57-.74-2.56-3-2.56-4.89 0-4 2.89-7.64 8.34-7.64 4.38 0 7.78 3.12 7.78 7.29 0 4.35-2.74 7.85-6.55 7.85a3.36 3.36 0 0 1-2.89-1.45s-.63 2.41-.79 3A13.68 13.68 0 0 1 8.26 22z" />
  {{ end }}

  {{ with (eq $icon "mail") }}
    <path d="M4 4h16c1.1 0 2 .9 2 2v12c0 1.1-.9 2-2 2H4c-1.1 0-2-.9-2-2V6c0-1.1.9-2 2-2z"></path>
    <polyline points="22,6 12,13 2,6"></polyline>
  {{ end }}

  {{ with (eq $icon "phone") }}
    <rect x="5" y="2" width="14" height="20" rx="2" ry="2"></rect>
    <line x1="12" y1="18" x2="12" y2="18"></line>
  {{ end }}

  {{ with (eq $icon "coffee") }}
    <path d="M18 8h1a4 4 0 0 1 0 8h-1"></path>
    <path d="M2 8h16v9a4 4 0 0 1-4 4H6a4 4 0 0 1-4-4V8z"></path>
    <line x1="6" y1="1" x2="6" y2="4"></line>
    <line x1="10" y1="1" x2="10" y2="4"></line>
    <line x1="14" y1="1" x2="14" y2="4"></line>
  {{ end }}

  {{ with (eq $icon "image") }}
    <rect x="3" y="3" width="18" height="18" rx="2" ry="2"></rect>
    <circle cx="8.5" cy="8.5" r="1.5"></circle>
    <polyline points="21 15 16 10 5 21"></polyline>
  {{ end }}

  {{ with (eq $icon "loader") }}
    <line x1="12" y1="2" x2="12" y2="6"></line>
    <line x1="12" y1="18" x2="12" y2="22"></line>
    <line x1="4.93" y1="4.93" x2="7.76" y2="7.76"></line>
    <line x1="16.24" y1="16.24" x2="19.07" y2="19.07"></line>
    <line x1="2" y1="12" x2="6" y2="12"></line>
    <line x1="18" y1="12" x2="22" y2="12"></line>
    <line x1="4.93" y1="19.07" x2="7.76" y2="16.24"></line>
    <line x1="16.24" y1="7.76" x2="19.07" y2="4.93"></line>
  {{ end }}

  {{ with (eq $icon "share") }}
    <circle cx="18" cy="5" r="3"></circle>
    <circle cx="6" cy="12" r="3"></circle>
    <circle cx="18" cy="19" r="3"></circle>
    <line x1="8.59" y1="13.51" x2="15.42" y2="17.49"></line>
    <line x1="15.41" y1="6.51" x2="8.59" y2="10.49"></line>
  {{ end }}

  {{ with (eq $icon "sun") }}
    <circle cx="12" cy="12" r="5"></circle>
    <line x1="12" y1="1" x2="12" y2="3"></line>
    <line x1="12" y1="21" x2="12" y2="23"></line>
    <line x1="4.22" y1="4.22" x2="5.64" y2="5.64"></line>
    <line x1="18.36" y1="18.36" x2="19.78" y2="19.78"></line>
    <line x1="1" y1="12" x2="3" y2="12"></line>
    <line x1="21" y1="12" x2="23" y2="12"></line>
    <line x1="4.22" y1="19.78" x2="5.64" y2="18.36"></line>
    <line x1="18.36" y1="5.64" x2="19.78" y2="4.22"></line>
  {{ end }}

  {{ with (eq $icon "flower") }}
    <circle cx="12" cy="10" r="4"/>
    <path d="M12 14v8M16 10h4M4 10h4M12 6V2M12 18v-4M14.83 7.17l2.83-2.83M6.34 15.66l2.83-2.83M14.83 12.83l2.83 2.83M6.34 4.34l2.83 2.83"/>
  {{ end }}

  {{ with (eq $icon "heart") }}
    <path d="M20.84 4.61a5.5 5.5 0 0 0-7.78 0L12 5.67l-1.06-1.06a5.5 5.5 0 0 0-7.78 7.78l1.06 1.06L12 21.23l7.78-7.78 1.06-1.06a5.5 5.5 0 0 0 0-7.78z"></path>
  {{ end }}

  {{ with (eq $icon "percent") }}
    <line x1="19" y1="5" x2="5" y2="19"></line>
    <circle cx="6.5" cy="6.5" r="2.5"></circle>
    <circle cx="17.5" cy="17.5" r="2.5"></circle>
  {{ end }}

  {{ with (eq $icon "quote" )}}
    <path d="M6.79 16.73a6.44 6.44 0 0 0 1.59-4 4.74 4.74 0 0 0-.21-1.49 4.18 4.18 0 0 1-2.63.94 4.54 4.54 0 0 1-3.24-1.27A4.32 4.32 0 0 1 1 7.6a4.37 4.37 0 0 1 1.32-3.24 4.38 4.38 0 0 1 3.22-1.3 4.7 4.7 0 0 1 4.19 2.25A8.44 8.44 0 0 1 10.94 10a11.47 11.47 0 0 1-1.82 6.39 12.76 12.76 0 0 1-5.49 4.56L3 19.66a9.75 9.75 0 0 0 3.79-2.93zm12.05 0a6.46 6.46 0 0 0 1.6-4 4.74 4.74 0 0 0-.21-1.49 4.1 4.1 0 0 1-2.63.94 4.55 4.55 0 0 1-3.23-1.23 4.33 4.33 0 0 1-1.31-3.35 4.38 4.38 0 0 1 .62-2.32 4.53 4.53 0 0 1 3.92-2.22 4.7 4.7 0 0 1 4.19 2.25A8.44 8.44 0 0 1 23 10a11.55 11.55 0 0 1-1.82 6.39 12.76 12.76 0 0 1-5.49 4.56L15 19.66a9.65 9.65 0 0 0 3.84-2.93z"/>
  {{ end }}
</svg>
