{{ $icon := . }}
<svg xmlns="http://www.w3.org/2000/svg" viewBox="0 0 24 24" fill="none" stroke="currentColor" stroke-width="1" stroke-linecap="round" stroke-linejoin="round">
  {{ with (eq $icon "clipboard") }}
    <path d="M16 4h2a2 2 0 0 1 2 2v14a2 2 0 0 1-2 2H6a2 2 0 0 1-2-2V6a2 2 0 0 1 2-2h2"></path>
    <rect x="8" y="2" width="8" height="4" rx="1" ry="1"></rect>
  {{ end }}

  {{ with (eq $icon "edit") }}
    <path d="M12 20h9"></path>
    <path d="M16.5 3.5a2.121 2.121 0 0 1 3 3L7 19l-4 1 1-4L16.5 3.5z"></path>
  {{ end }}

  {{ with (eq $icon "instagram") }}
    <rect x="2" y="2" width="20" height="20" rx="5" ry="5"></rect>
    <path d="M16 11.37A4 4 0 1 1 12.63 8 4 4 0 0 1 16 11.37z"></path>
    <line x1="17.5" y1="6.5" x2="17.5" y2="6.5"></line>
  {{ end }}
</svg>
