{{ $filter := cond (eq . "shadow") "filter=\"url(#shadow)\"" "" | safeHTMLAttr}}
<svg xmlns="http://www.w3.org/2000/svg" viewBox="0 0 380 410" fill="currentColor" oveflow="visible">
  <defs>
    <filter id="shadow">
      <feDropShadow dx="0" dy="0" stdDeviation="30" flood-color="#000000" flood-opacity="1" />
    </filter>
  </defs>
  <path d="M190.35 69.32l-50.94 229.42H132L67.73 52.81h7.39l60.44 233.27 51.3-233.27h7l51.27 233.63 59.4-233.63h7.74l-63.6 245.93h-7.38zM135 319.28l-5.9 20.2h-.54l-7.5-22.24h.94l6.79 20.6 6-20.6h.5l6 20.55 6.84-20.55h.87l-7.46 22.24H141zM163.36 339.48a16.56 16.56 0 0 1-4.09.53 7.81 7.81 0 0 1-5.18-1.64 6 6 0 0 1-1.89-4.86v-9.09a7.14 7.14 0 0 1 2.24-5.61 8.6 8.6 0 0 1 5.92-2 8 8 0 0 1 5.75 2 7.24 7.24 0 0 1 2.07 5.47v4.23l-15.11.75v4.4a5.1 5.1 0 0 0 1.77 4.2 7.07 7.07 0 0 0 4.62 1.44 12.93 12.93 0 0 0 3.55-.53 17.11 17.11 0 0 0 3.69-1.56l.39.76a12.53 12.53 0 0 1-3.73 1.51zm1.89-20.27a8.14 8.14 0 0 0-4.95-1.53 8.3 8.3 0 0 0-5.13 1.63 5.94 5.94 0 0 0-2.15 5.08v4.08l14.29-.8v-3.42q0-3.51-2.11-5zM188.6 308.41v31.07l-2.44.22c-1.51.18-3 .28-4.53.31a15.21 15.21 0 0 1-3.09-.31 13 13 0 0 1-2.84-1 6.12 6.12 0 0 1-2.53-2.36 7.31 7.31 0 0 1-.94-3.77v-8.39q0-4.67 3.78-6.39a10.49 10.49 0 0 1 4.66-.84 19.15 19.15 0 0 1 3.78.37 14 14 0 0 1 3.29 1v-9.93zm-4.08 9.72a16.5 16.5 0 0 0-3.83-.45 9.29 9.29 0 0 0-5.46 1.53q-2.16 1.53-2.17 5v8.31a5.5 5.5 0 0 0 2.53 5.06 12.39 12.39 0 0 0 6.53 1.55 25.71 25.71 0 0 0 5.66-.63v-19.31a17 17 0 0 0-3.26-1.06zM209.43 308.41v31.07l-2.44.22c-1.5.18-3 .28-4.53.31a15.18 15.18 0 0 1-3.08-.31 12.43 12.43 0 0 1-2.83-1 5.94 5.94 0 0 1-2.53-2.36 7.2 7.2 0 0 1-1-3.77v-8.39q0-4.67 3.78-6.39a10.67 10.67 0 0 1 4.67-.84 19.12 19.12 0 0 1 3.77.37 14 14 0 0 1 3.29 1v-9.93zm-4.08 9.72a17.21 17.21 0 0 0-3.78-.45 9.32 9.32 0 0 0-5.47 1.53c-1.44 1-2.17 2.7-2.17 5v8.31a5.52 5.52 0 0 0 2.53 5.06 12.39 12.39 0 0 0 6.53 1.55 25.73 25.73 0 0 0 5.67-.63v-19.31a17.48 17.48 0 0 0-3.31-1.06zM214.6 309a.6.6 0 0 1-.18-.44.57.57 0 0 1 .18-.4.59.59 0 0 1 .4-.16.59.59 0 0 1 .41.18.56.56 0 0 1 .17.4.66.66 0 0 1-.17.44.59.59 0 0 1-.85 0zm0 8.26h.85v22.24h-.85zM236.7 324.08a5.51 5.51 0 0 0-2.22-4.84 9.48 9.48 0 0 0-5.55-1.56 15.6 15.6 0 0 0-3.66.45 14 14 0 0 0-3.26 1.19v20.16h-.87v-22.24h.86v1.15a15 15 0 0 1 6.83-1.55 11.16 11.16 0 0 1 4.93 1c2.51 1.15 3.78 3.26 3.78 6.34v15.36h-.85zM256.09 347a4.07 4.07 0 0 0 1.39-1.63 6.69 6.69 0 0 0 .58-3.06v-6.12a8 8 0 0 1-3.27 2.9 9.84 9.84 0 0 1-4.37.95 8.34 8.34 0 0 1-6.08-2.13c-1.45-1.42-2.17-3.49-2.18-6.21v-6.61a7.81 7.81 0 0 1 2.36-6.06 8.81 8.81 0 0 1 6.21-2.15 11.46 11.46 0 0 1 4.22.71 6.89 6.89 0 0 1 3.11 2.53v-2.83h.84v25.08a6.86 6.86 0 0 1-1.11 4.17 7 7 0 0 1-3.64 2.31l-.27-.8a12.78 12.78 0 0 0 2.21-1.05zm-.83-28.28a9.86 9.86 0 0 0-4.53-1 9.23 9.23 0 0 0-5.28 1.66c-1.62 1.12-2.44 3.09-2.44 5.93v6.8a7.16 7.16 0 0 0 1.88 5.17 7.29 7.29 0 0 0 5.53 2 9.62 9.62 0 0 0 3.48-.68 7 7 0 0 0 3-2.22 6.24 6.24 0 0 0 1.2-3.93v-10.59a5.81 5.81 0 0 0-2.83-3.18z" {{ $filter }} />
  <path d="M140.72 372.07a3.81 3.81 0 0 1-1.59 1.49 8.45 8.45 0 0 1-1.76.65 9.77 9.77 0 0 1-2 .19 17.62 17.62 0 0 1-2.88-.19l-1.54-.14v-19.66h.54v6.26a8.4 8.4 0 0 1 2.08-.66 13 13 0 0 1 2.42-.25 6.65 6.65 0 0 1 3 .55 4 4 0 0 1 2.38 4v5.27a4.45 4.45 0 0 1-.65 2.49zm-1.31-10.83a6 6 0 0 0-3.51-1 10.31 10.31 0 0 0-2.41.28 10.75 10.75 0 0 0-2.05.69v12.28a16.58 16.58 0 0 0 3.51.41 7.88 7.88 0 0 0 4.12-1 3.5 3.5 0 0 0 1.6-3.21v-5.26a3.64 3.64 0 0 0-1.26-3.23zM153.47 378.3a3.9 3.9 0 0 0 .66-2.46v-4.21a4.37 4.37 0 0 1-2.12 2.14 6.56 6.56 0 0 1-2.76.63 5.16 5.16 0 0 1-3.8-1.33 5.27 5.27 0 0 1-1.34-3.95V360h.55v9.41a4.61 4.61 0 0 0 1.1 3.25 4.51 4.51 0 0 0 3.51 1.22 5.39 5.39 0 0 0 2.55-.58 4.26 4.26 0 0 0 1.75-1.59 4.54 4.54 0 0 0 .62-2.3v-5.81a13.07 13.07 0 0 1 .17-2.58 1.77 1.77 0 0 1 .9-1.27l.21.44a3.2 3.2 0 0 0-.76 2.53v13.06a4.8 4.8 0 0 1-.66 2.7 4.21 4.21 0 0 1-2.29 1.49l-.15-.5a3.58 3.58 0 0 0 1.86-1.17zM167.26 354.78a.38.38 0 0 1-.12-.28.31.31 0 0 1 .12-.27.4.4 0 0 1 .53 0 .34.34 0 0 1 .1.27.42.42 0 0 1-.1.28.4.4 0 0 1-.53 0zm0 5.26h.53v14h-.53zM177.49 374.37a8.7 8.7 0 0 1-4.68-1.09 4.32 4.32 0 0 1-1.76-4V367a3.81 3.81 0 0 1 2-3.72 6.16 6.16 0 0 1 2.61-.49 11.39 11.39 0 0 1 3 .42 9.44 9.44 0 0 1 2.65 1.14 3.91 3.91 0 0 0-1.19-3 5.64 5.64 0 0 0-4.16-1.07v-.55a7.37 7.37 0 0 1 4 .86 3.51 3.51 0 0 1 1.58 2 12.88 12.88 0 0 1 .3 3v8.38c-1.99.29-3.45.4-4.35.4zm1.27-10.54a10.26 10.26 0 0 0-3.06-.5 4.51 4.51 0 0 0-3 .91 3.48 3.48 0 0 0-1.14 2.88v2.45a3.6 3.6 0 0 0 1.58 3.37 8 8 0 0 0 4.26 1 31.71 31.71 0 0 0 3.9-.32v-8.56a9 9 0 0 0-2.58-1.27zM199.57 374.07a10.28 10.28 0 0 1-2.59.33 5.14 5.14 0 0 1-3.3-1 3.79 3.79 0 0 1-1.21-3.09v-5.75a4.46 4.46 0 0 1 1.42-3.51 5.42 5.42 0 0 1 3.74-1.27 5 5 0 0 1 3.63 1.25 4.57 4.57 0 0 1 1.32 3.51v2.67l-9.59.47v2.76a3.28 3.28 0 0 0 1.13 2.65 4.58 4.58 0 0 0 2.93.91 8.92 8.92 0 0 0 2.24-.33 11.91 11.91 0 0 0 2.32-1l.26.48a8.54 8.54 0 0 1-2.3.92zm1.16-12.83a5.58 5.58 0 0 0-6.37 0 3.74 3.74 0 0 0-1.37 3.21V367l9-.51v-2.16a3.69 3.69 0 0 0-1.26-3.09zM204.45 360h.55l4.86 13 4.88-13h.55L210 374h-.37zM224.29 374.07a10.2 10.2 0 0 1-2.58.33 5 5 0 0 1-3.3-1 3.75 3.75 0 0 1-1.23-3.09v-5.75a4.46 4.46 0 0 1 1.42-3.56 5.42 5.42 0 0 1 3.74-1.27A5.08 5.08 0 0 1 226 361a4.62 4.62 0 0 1 1.3 3.51v2.67l-9.58.47v2.76a3.24 3.24 0 0 0 1.12 2.65 4.6 4.6 0 0 0 2.93.91 9 9 0 0 0 2.25-.33 12.27 12.27 0 0 0 2.33-1l.25.48a8.68 8.68 0 0 1-2.31.95zm1.16-12.83a5.16 5.16 0 0 0-3.13-1 5.28 5.28 0 0 0-3.25 1 3.73 3.73 0 0 0-1.36 3.21v2.58l9-.51v-2.16a3.72 3.72 0 0 0-1.26-3.12zM240.14 364.33a3.55 3.55 0 0 0-1.41-3.08 6 6 0 0 0-3.51-1 9.42 9.42 0 0 0-2.31.28 8.78 8.78 0 0 0-2.06.76v12.76h-.51V360h.55v.73a9.2 9.2 0 0 1 4.31-1 7.29 7.29 0 0 1 3.13.58 4.07 4.07 0 0 1 2.39 4v9.72h-.55zM244.75 373a4.4 4.4 0 0 1-.7-2.64v-15.95h.53V360H249l-.26.54h-4.16v9.83a3.73 3.73 0 0 0 .61 2.32 4 4 0 0 0 2 1.25l-.16.51a4.23 4.23 0 0 1-2.28-1.45z" {{ $filter }} />
  <path d="M374 6v398H6V6h368m6-6H0v410h380z" {{ $filter }} />
</svg>
