<svg id="extracted" xmlns="http://www.w3.org/2000/svg" viewBox="0 0 380 410">
  <path d="M190.37,70.29,136.43,313.21h-7.81L60.54,52.81h7.82l64,247,54.31-247h7.44L248.4,300.19,311.27,52.81h8.19l-67.34,260.4h-7.81Z"/>
  <g>
    <path d="M131.82,331.78l-6.25,21.39H125l-7.94-23.55H118l7.19,21.81,6.34-21.81h.52l6.39,21.76,7.24-21.76h.94l-7.89,23.55h-.62Z"/>
    <path d="M161.82,353.17a17.38,17.38,0,0,1-4.33.56A8.32,8.32,0,0,1,152,352a6.36,6.36,0,0,1-2-5.15v-9.63a7.54,7.54,0,0,1,2.37-5.93,9.06,9.06,0,0,1,6.27-2.11,8.48,8.48,0,0,1,6.09,2.09,7.64,7.64,0,0,1,2.19,5.8v4.47l-16,.8V347a5.41,5.41,0,0,0,1.88,4.45,7.54,7.54,0,0,0,4.89,1.52,13.55,13.55,0,0,0,3.76-.56,18.16,18.16,0,0,0,3.9-1.65l.42.8A13.25,13.25,0,0,1,161.82,353.17Zm2-21.46a8.57,8.57,0,0,0-5.24-1.62,8.74,8.74,0,0,0-5.43,1.72c-1.52,1.14-2.28,2.94-2.28,5.38v4.32l15.13-.84v-3.62Q166,333.33,163.77,331.71Z"/>
    <path d="M188.54,320.27v32.9l-2.58.23a47.58,47.58,0,0,1-4.8.33,15.49,15.49,0,0,1-3.27-.33,13.12,13.12,0,0,1-3-1.08,6.43,6.43,0,0,1-2.68-2.49,7.77,7.77,0,0,1-1-4v-8.88q0-4.94,4-6.77a11.34,11.34,0,0,1,4.94-.89,20.57,20.57,0,0,1,4,.4,14.11,14.11,0,0,1,3.48,1.1V320.27Zm-4.32,10.29a18.05,18.05,0,0,0-4.05-.47,9.83,9.83,0,0,0-5.78,1.62q-2.29,1.62-2.3,5.34v8.79a5.81,5.81,0,0,0,2.68,5.36,13.11,13.11,0,0,0,6.91,1.64,27.85,27.85,0,0,0,6-.66V331.69A18.13,18.13,0,0,0,184.22,330.56Z"/>
    <path d="M210.6,320.27v32.9l-2.58.23a47.58,47.58,0,0,1-4.8.33,15.33,15.33,0,0,1-3.26-.33,12.8,12.8,0,0,1-3-1.08,6.31,6.31,0,0,1-2.68-2.49,7.68,7.68,0,0,1-1-4v-8.88q0-4.94,4-6.77a11.37,11.37,0,0,1,4.94-.89,20.5,20.5,0,0,1,4,.4,14.11,14.11,0,0,1,3.48,1.1V320.27Zm-4.32,10.29a18,18,0,0,0-4-.47,9.84,9.84,0,0,0-5.79,1.62q-2.3,1.62-2.3,5.34v8.79a5.83,5.83,0,0,0,2.68,5.36,13.11,13.11,0,0,0,6.91,1.64,27.85,27.85,0,0,0,6-.66V331.69A18.13,18.13,0,0,0,206.28,330.56Z"/>
    <path d="M216.07,320.88a.67.67,0,0,1-.19-.47.59.59,0,0,1,.19-.42.63.63,0,0,1,.47-.19.59.59,0,0,1,.43.19.58.58,0,0,1,.18.42.66.66,0,0,1-.18.47.59.59,0,0,1-.43.19A.63.63,0,0,1,216.07,320.88Zm0,8.74h.9v23.55h-.9Z"/>
    <path d="M239.47,336.86a5.8,5.8,0,0,0-2.35-5.12,10,10,0,0,0-5.87-1.65,16.67,16.67,0,0,0-3.88.47,15,15,0,0,0-3.45,1.27v21.34H223V329.62h.9v1.22a15.82,15.82,0,0,1,7.23-1.64,11.91,11.91,0,0,1,5.22,1c2.66,1.22,4,3.46,4,6.72v16.26h-.9Z"/>
    <path d="M260,361.09a4.25,4.25,0,0,0,1.48-1.72,7.19,7.19,0,0,0,.61-3.24v-6.49a8.51,8.51,0,0,1-3.46,3.08,10.38,10.38,0,0,1-4.63,1,8.85,8.85,0,0,1-6.44-2.25q-2.29-2.26-2.3-6.58v-7a8.26,8.26,0,0,1,2.49-6.41,9.37,9.37,0,0,1,6.58-2.28,12.32,12.32,0,0,1,4.47.75,7.31,7.31,0,0,1,3.29,2.68v-3h.89v26.56a7.31,7.31,0,0,1-1.17,4.41,7.39,7.39,0,0,1-3.86,2.45l-.28-.85A13.93,13.93,0,0,0,260,361.09Zm-.87-29.94a10.35,10.35,0,0,0-4.8-1.06,9.76,9.76,0,0,0-5.59,1.76c-1.72,1.18-2.59,3.27-2.59,6.28v7.19a7.62,7.62,0,0,0,2,5.48,7.73,7.73,0,0,0,5.85,2.09,10.14,10.14,0,0,0,3.69-.73,7.37,7.37,0,0,0,3.13-2.35,6.59,6.59,0,0,0,1.27-4.16V334.51A6.11,6.11,0,0,0,259.09,331.15Z"/>
  </g>
  <g>
    <path d="M161.94,376.59a2.19,2.19,0,0,1-.91.85,4.73,4.73,0,0,1-1,.37,5.65,5.65,0,0,1-1.11.11c-.4,0-.94,0-1.64-.11l-.88-.08v-11.2h.31v3.57a4.81,4.81,0,0,1,1.18-.38,7.18,7.18,0,0,1,1.38-.14,3.79,3.79,0,0,1,1.68.31,2.3,2.3,0,0,1,1.36,2.3v3A2.56,2.56,0,0,1,161.94,376.59Zm-.75-6.17a3.39,3.39,0,0,0-2-.55,5.76,5.76,0,0,0-1.37.16,6.15,6.15,0,0,0-1.17.39v7a9.43,9.43,0,0,0,2,.23,4.47,4.47,0,0,0,2.35-.56,2,2,0,0,0,.91-1.83v-3A2.08,2.08,0,0,0,161.19,370.42Z"/>
    <path d="M169.2,380.14a2.22,2.22,0,0,0,.38-1.4v-2.4a2.52,2.52,0,0,1-1.21,1.22,3.77,3.77,0,0,1-1.57.36,2.93,2.93,0,0,1-2.17-.76,3,3,0,0,1-.76-2.25v-5.2h.31v5.36a2.64,2.64,0,0,0,.63,1.85,2.57,2.57,0,0,0,2,.7,3.1,3.1,0,0,0,1.45-.33,2.44,2.44,0,0,0,1-.91,2.54,2.54,0,0,0,.35-1.31v-3.31a7.72,7.72,0,0,1,.1-1.47,1,1,0,0,1,.51-.72l.12.25a1.81,1.81,0,0,0-.43,1.44v7.44a2.74,2.74,0,0,1-.38,1.54,2.39,2.39,0,0,1-1.3.85l-.09-.29A2,2,0,0,0,169.2,380.14Z"/>
    <path d="M177.06,366.74a.21.21,0,0,1-.07-.16.18.18,0,0,1,.07-.15.21.21,0,0,1,.16-.06.2.2,0,0,1,.14.06.2.2,0,0,1,.06.15.25.25,0,0,1-.06.16.2.2,0,0,1-.14.06A.21.21,0,0,1,177.06,366.74Zm0,3h.3v8h-.3Z"/>
    <path d="M182.89,377.9a4.93,4.93,0,0,1-2.67-.62,2.46,2.46,0,0,1-1-2.26V373.7a2.16,2.16,0,0,1,1.16-2.12,3.54,3.54,0,0,1,1.49-.28,6.32,6.32,0,0,1,1.69.24,5.21,5.21,0,0,1,1.51.65,2.25,2.25,0,0,0-.68-1.69,3.23,3.23,0,0,0-2.37-.61l0-.31a4.16,4.16,0,0,1,2.26.49,2,2,0,0,1,.9,1.16,7.47,7.47,0,0,1,.17,1.73v4.77C184.23,377.84,183.4,377.9,182.89,377.9Zm.72-6a5.87,5.87,0,0,0-1.74-.29,2.59,2.59,0,0,0-1.69.52,2,2,0,0,0-.65,1.64v1.4a2.06,2.06,0,0,0,.9,1.92,4.55,4.55,0,0,0,2.43.56,17.31,17.31,0,0,0,2.22-.18v-4.88A5,5,0,0,0,183.61,371.87Z"/>
    <path d="M195.47,377.73a5.78,5.78,0,0,1-1.48.19,2.91,2.91,0,0,1-1.88-.58,2.18,2.18,0,0,1-.69-1.76V372.3a2.55,2.55,0,0,1,.81-2,3.09,3.09,0,0,1,2.13-.72,2.83,2.83,0,0,1,2.07.71,2.59,2.59,0,0,1,.75,2v1.52l-5.46.27v1.57a1.86,1.86,0,0,0,.64,1.51,2.6,2.6,0,0,0,1.67.52,5,5,0,0,0,1.28-.19,6.53,6.53,0,0,0,1.32-.56l.15.27A4.84,4.84,0,0,1,195.47,377.73Zm.66-7.31a3.18,3.18,0,0,0-3.63,0,2.13,2.13,0,0,0-.78,1.83v1.47l5.15-.29v-1.23A2.11,2.11,0,0,0,196.13,370.42Z"/>
    <path d="M198.25,369.71h.3l2.77,7.43,2.78-7.43h.31l-3,8h-.21Z"/>
    <path d="M209.55,377.73a5.7,5.7,0,0,1-1.47.19,2.87,2.87,0,0,1-1.88-.58,2.16,2.16,0,0,1-.7-1.76V372.3a2.55,2.55,0,0,1,.81-2,3.09,3.09,0,0,1,2.13-.72,2.87,2.87,0,0,1,2.08.71,2.62,2.62,0,0,1,.74,2v1.52l-5.46.27v1.57a1.86,1.86,0,0,0,.64,1.51,2.6,2.6,0,0,0,1.67.52,5,5,0,0,0,1.28-.19,6.61,6.61,0,0,0,1.33-.56l.14.27A4.71,4.71,0,0,1,209.55,377.73Zm.66-7.31a2.94,2.94,0,0,0-1.78-.55,3,3,0,0,0-1.85.59,2.13,2.13,0,0,0-.78,1.83v1.47l5.16-.29v-1.23A2.12,2.12,0,0,0,210.21,370.42Z"/>
    <path d="M218.58,372.18a2,2,0,0,0-.8-1.75,3.42,3.42,0,0,0-2-.56,5.48,5.48,0,0,0-1.32.16,5.18,5.18,0,0,0-1.17.43v7.27H213v-8h.31v.42a5.24,5.24,0,0,1,2.46-.56,4.13,4.13,0,0,1,1.78.33,2.31,2.31,0,0,1,1.36,2.29v5.54h-.31Z"/>
    <path d="M221.21,377.12a2.49,2.49,0,0,1-.4-1.5v-9.09h.3v3.18h2.52l-.15.31h-2.37v5.6a2.12,2.12,0,0,0,.35,1.32,2.26,2.26,0,0,0,1.14.71l-.09.29A2.38,2.38,0,0,1,221.21,377.12Z"/>
  </g>
  <path d="M374,6V404H6V6H374m6-6H0V410H380V0Z"/>
</svg>
