<svg xmlns="http://www.w3.org/2000/svg" viewBox="0 0 380 410">
  <path d="M189.63 70.29l-53.94 242.92h-7.81L59.8 52.81h7.81l64 247 54.31-247h7.44l54.31 247.38 62.86-247.38h8.18l-67.33 260.4h-7.81zM131.19 328.78l-6.25 21.39h-.56l-7.94-23.55h.94l7.19 21.81 6.34-21.81h.52l6.39 21.76 7.24-21.76h.94l-7.9 23.55h-.61zM161.19 350.17a17.31 17.31 0 0 1-4.32.56 8.32 8.32 0 0 1-5.52-1.71 6.33 6.33 0 0 1-2-5.15v-9.63a7.51 7.51 0 0 1 2.38-5.93 9.06 9.06 0 0 1 6.27-2.11 8.48 8.48 0 0 1 6.09 2.09 7.67 7.67 0 0 1 2.18 5.8v4.47l-16 .8V344a5.41 5.41 0 0 0 1.88 4.45 7.58 7.58 0 0 0 4.89 1.52 13.5 13.5 0 0 0 3.76-.56 17.75 17.75 0 0 0 3.9-1.65l.43.8a13.31 13.31 0 0 1-3.94 1.61zm1.95-21.46a8.53 8.53 0 0 0-5.24-1.62 8.74 8.74 0 0 0-5.43 1.72c-1.52 1.14-2.28 2.94-2.28 5.38v4.32l15.14-.84v-3.62q0-3.72-2.19-5.34zM187.92 317.27v32.9l-2.59.23a47.42 47.42 0 0 1-4.79.33 15.49 15.49 0 0 1-3.27-.33 12.8 12.8 0 0 1-3-1.08 6.37 6.37 0 0 1-2.68-2.49 7.68 7.68 0 0 1-1-4v-8.88q0-4.94 4-6.77a11.32 11.32 0 0 1 4.93-.89 20.42 20.42 0 0 1 4 .4 14.11 14.11 0 0 1 3.48 1.1v-10.52zm-4.33 10.29a18 18 0 0 0-4-.47 9.79 9.79 0 0 0-5.78 1.62c-1.54 1.08-2.3 2.86-2.3 5.34v8.79a5.81 5.81 0 0 0 2.68 5.36 13.05 13.05 0 0 0 6.9 1.64 27.72 27.72 0 0 0 6-.66v-20.49a17.89 17.89 0 0 0-3.5-1.13zM210 317.27v32.9l-2.59.23a47.24 47.24 0 0 1-4.79.33 15.49 15.49 0 0 1-3.27-.33 12.8 12.8 0 0 1-3-1.08 6.37 6.37 0 0 1-2.68-2.49 7.68 7.68 0 0 1-1-4v-8.88c0-3.29 1.34-5.55 4-6.77a11.32 11.32 0 0 1 4.93-.89 20.6 20.6 0 0 1 4.05.4 14.17 14.17 0 0 1 3.47 1.1v-10.52zm-4.33 10.29a17.9 17.9 0 0 0-4-.47 9.81 9.81 0 0 0-5.78 1.62c-1.54 1.08-2.3 2.86-2.3 5.34v8.79a5.81 5.81 0 0 0 2.68 5.36 13.09 13.09 0 0 0 6.91 1.64 27.69 27.69 0 0 0 6-.66v-20.49a17.89 17.89 0 0 0-3.53-1.13zM215.45 317.88a.63.63 0 0 1-.19-.47.55.55 0 0 1 .19-.42.61.61 0 0 1 .47-.19.57.57 0 0 1 .42.19.55.55 0 0 1 .19.42.63.63 0 0 1-.19.47.57.57 0 0 1-.42.19.61.61 0 0 1-.47-.19zm0 8.74h.89v23.55h-.89zM238.85 333.86a5.8 5.8 0 0 0-2.35-5.12 10 10 0 0 0-5.88-1.65 16.65 16.65 0 0 0-3.87.47 15.1 15.1 0 0 0-3.46 1.27v21.34h-.89v-23.55h.89v1.22a15.86 15.86 0 0 1 7.24-1.64 11.91 11.91 0 0 1 5.22 1q4 1.83 4 6.72v16.26h-.89zM259.33 358.09a4.25 4.25 0 0 0 1.48-1.72 7.05 7.05 0 0 0 .61-3.24v-6.49a8.55 8.55 0 0 1-3.45 3.08 10.44 10.44 0 0 1-4.63 1 8.83 8.83 0 0 1-6.44-2.25c-1.54-1.51-2.3-3.7-2.3-6.58v-7a8.26 8.26 0 0 1 2.49-6.41 9.36 9.36 0 0 1 6.58-2.28 12.22 12.22 0 0 1 4.46.75 7.26 7.26 0 0 1 3.29 2.68v-3h.9v26.56a6.29 6.29 0 0 1-5 6.86l-.28-.85a13.78 13.78 0 0 0 2.29-1.11zm-.87-29.94a10.31 10.31 0 0 0-4.79-1.06 9.74 9.74 0 0 0-5.59 1.76q-2.6 1.77-2.59 6.28v7.19a7.62 7.62 0 0 0 2 5.48 7.73 7.73 0 0 0 5.85 2.09 10.18 10.18 0 0 0 3.69-.73 7.28 7.28 0 0 0 3.12-2.35 6.53 6.53 0 0 0 1.27-4.16v-11.14a6.07 6.07 0 0 0-2.96-3.36z"/>
  <g>
    <path d="M164 376.59a2.13 2.13 0 0 1-.91.85 4.55 4.55 0 0 1-1 .37 5.65 5.65 0 0 1-1.11.11c-.4 0-.94 0-1.63-.11l-.88-.08v-11.2h.3v3.57a4.81 4.81 0 0 1 1.18-.38 7.18 7.18 0 0 1 1.38-.14 3.79 3.79 0 0 1 1.68.31 2.29 2.29 0 0 1 1.36 2.3v3a2.56 2.56 0 0 1-.37 1.4zm-.75-6.17a3.39 3.39 0 0 0-2-.55 5.82 5.82 0 0 0-1.37.16 6.15 6.15 0 0 0-1.17.39v7a9.43 9.43 0 0 0 2 .23 4.44 4.44 0 0 0 2.35-.56 2 2 0 0 0 .92-1.83v-3a2.09 2.09 0 0 0-.74-1.84zM171.25 380.14a2.22 2.22 0 0 0 .38-1.4v-2.4a2.52 2.52 0 0 1-1.21 1.22 3.74 3.74 0 0 1-1.57.36 2.93 2.93 0 0 1-2.17-.76 3.09 3.09 0 0 1-.76-2.25v-5.2h.31v5.36a2.64 2.64 0 0 0 .63 1.85 2.57 2.57 0 0 0 2 .7 3.1 3.1 0 0 0 1.45-.33 2.44 2.44 0 0 0 1-.91 2.54 2.54 0 0 0 .35-1.31v-3.31a7.72 7.72 0 0 1 .1-1.47 1 1 0 0 1 .51-.72l.12.25a1.81 1.81 0 0 0-.43 1.44v7.44a2.74 2.74 0 0 1-.38 1.54 2.39 2.39 0 0 1-1.3.85l-.09-.29a2 2 0 0 0 1.06-.66zM179.11 366.74a.21.21 0 0 1-.07-.16.18.18 0 0 1 .07-.15.21.21 0 0 1 .16-.06.2.2 0 0 1 .14.06.2.2 0 0 1 .06.15.25.25 0 0 1-.06.16.2.2 0 0 1-.14.06.21.21 0 0 1-.16-.06zm0 3h.3v8h-.3zM184.94 377.9a4.93 4.93 0 0 1-2.67-.62 2.46 2.46 0 0 1-1-2.26v-1.32a2.15 2.15 0 0 1 1.17-2.12 3.46 3.46 0 0 1 1.48-.28 6.32 6.32 0 0 1 1.69.24 5.21 5.21 0 0 1 1.51.65 2.25 2.25 0 0 0-.68-1.69 3.23 3.23 0 0 0-2.37-.61v-.31a4.16 4.16 0 0 1 2.26.49 2 2 0 0 1 .9 1.16 7.47 7.47 0 0 1 .17 1.73v4.77c-1.11.11-1.95.17-2.46.17zm.72-6a5.87 5.87 0 0 0-1.74-.29 2.59 2.59 0 0 0-1.69.52 2 2 0 0 0-.65 1.64v1.4a2.06 2.06 0 0 0 .9 1.92 4.58 4.58 0 0 0 2.43.56 17.17 17.17 0 0 0 2.22-.18v-4.88a5 5 0 0 0-1.47-.72zM197.52 377.73a5.7 5.7 0 0 1-1.47.19 2.87 2.87 0 0 1-1.88-.58 2.16 2.16 0 0 1-.7-1.76v-3.28a2.55 2.55 0 0 1 .81-2 3.09 3.09 0 0 1 2.13-.72 2.87 2.87 0 0 1 2.08.71 2.62 2.62 0 0 1 .74 2v1.52l-5.46.27v1.57a1.86 1.86 0 0 0 .64 1.51 2.62 2.62 0 0 0 1.67.52 5 5 0 0 0 1.28-.19 6.61 6.61 0 0 0 1.33-.56l.14.27a4.71 4.71 0 0 1-1.31.53zm.66-7.31a2.94 2.94 0 0 0-1.78-.55 3 3 0 0 0-1.85.59 2.13 2.13 0 0 0-.78 1.83v1.47l5.16-.29v-1.23a2.12 2.12 0 0 0-.75-1.82zM200.3 369.71h.3l2.77 7.43 2.78-7.43h.31l-3 8h-.21zM211.6 377.73a5.7 5.7 0 0 1-1.47.19 2.87 2.87 0 0 1-1.88-.58 2.16 2.16 0 0 1-.7-1.76v-3.28a2.55 2.55 0 0 1 .81-2 3.09 3.09 0 0 1 2.13-.72 2.87 2.87 0 0 1 2.08.71 2.62 2.62 0 0 1 .74 2v1.52l-5.46.27v1.57a1.86 1.86 0 0 0 .64 1.51 2.62 2.62 0 0 0 1.67.52 5 5 0 0 0 1.28-.19 6.61 6.61 0 0 0 1.33-.56l.14.27a4.71 4.71 0 0 1-1.31.53zm.66-7.31a2.94 2.94 0 0 0-1.78-.55 3 3 0 0 0-1.85.59 2.13 2.13 0 0 0-.78 1.83v1.47l5.16-.29v-1.23a2.12 2.12 0 0 0-.75-1.82zM220.63 372.18a2 2 0 0 0-.8-1.75 3.42 3.42 0 0 0-2-.56 5.54 5.54 0 0 0-1.32.16 5.18 5.18 0 0 0-1.17.43v7.27H215v-8h.31v.42a5.27 5.27 0 0 1 2.46-.56 4.13 4.13 0 0 1 1.78.33 2.31 2.31 0 0 1 1.36 2.29v5.54h-.31zM223.26 377.12a2.49 2.49 0 0 1-.4-1.5v-9.09h.31v3.18h2.51l-.15.31h-2.36v5.6a2.12 2.12 0 0 0 .34 1.32 2.26 2.26 0 0 0 1.14.71l-.09.29a2.38 2.38 0 0 1-1.3-.82z"/>
  </g>
  <path d="M374 6v398H6V6h368m6-6H0v410h380V0z"/>
</svg>