<svg xmlns="http://www.w3.org/2000/svg" viewBox="0 0 400 512">
  <title>Logotype</title>
  <g>
    <path d="M400,.05c-1.79,7.08-3.44,13.7-5.13,20.32q-32.4,126.75-64.81,253.49-16.69,65.29-33.37,130.61c-.58,2.29-1.53,3-3.77,2.88-2.83-.19-5.68-.05-8.9-.05Q242.41,217.82,200.86,28.53l-.7,0Q158.63,217.66,117,407.27c-3.52,0-7.1.14-10.65-.12-.69,0-1.6-1.53-1.86-2.5-3.28-12.37-6.47-24.77-9.68-37.17L21,81.78Q10.8,42.5.67,3.22C.43,2.28.26,1.32,0,.06c3.54,0,6.8.07,10.07,0C12,0,12,1.32,12.35,2.62q7.14,27.92,14.32,55.82Q59.05,184.86,91.43,311.26q9.33,36.42,18.63,72.84a1.82,1.82,0,0,0,1,1.25Q152.92,192.9,194.85.08c3.35,0,6.71-.12,10.05.11.63,0,1.51,1.37,1.7,2.24q7.31,33.17,14.47,66.36,17,78,33.91,156Q269.56,292,284.12,359.2c1.92,8.84,3.85,17.67,6.35,26.59.26-.83.57-1.66.78-2.51q44.36-176.5,88.69-353c2.31-9.21,4.75-18.39,6.95-27.63.49-2,1.31-2.71,3.31-2.61C393.24.15,396.3.05,400,.05Z"/>
    <path d="M252.15,470.34c-1,4.17-2.12,8.33-3.08,12.52a34.8,34.8,0,0,0-.45,4.36l.87.39c.77-.79,1.58-1.54,2.3-2.36,6.46-7.36,12.79-14.8,17.57-23.46a14.67,14.67,0,0,1,3.72-4.57,9.15,9.15,0,0,1,5-1.9c4.4-.05,6.63,3.56,4.1,7.15a31.16,31.16,0,0,1-8.36,7.6c-1.73,1.15-2.89,1.92-2.94,4.13-.05,2-.7,3.92-.76,5.88s1,2.64,2.78,1.61a16.16,16.16,0,0,0,2.93-2.11c4.55-4.33,8.77-8.9,10.61-15.18a7.59,7.59,0,0,1,1.1-2.74c.78-.93.59-3.3,2.75-2.44,1.71.69,1.91,3.18,1.05,5-1.2,2.55-2,5.28-3,7.94l1,.39c1-2.13,1.91-4.33,3.07-6.37,1.95-3.45,4-6.86,6.15-10.16,1.12-1.7,2.73-3.27,4.94-1.94s2,3.43,1.16,5.58a46.86,46.86,0,0,0-2.56,8.13c1.53-2.19,3.06-4.38,4.61-6.56a19.3,19.3,0,0,1,1.42-1.82c1.52-1.69,3.5-3.59,5.56-2.11,1.11.8,1.42,3.63,1.11,5.36-.52,2.78-1.92,5.37-2.82,8.09-.83,2.54-1.5,5.14-2.24,7.71l1,.57a10.42,10.42,0,0,0,2.13-1.67c3.14-4.08,6.2-8.23,9.27-12.36a13.76,13.76,0,0,1,.89-1.39c3.67-3.73,8.23-6.51,10.94-11.27.86-1.53,2.94-1.81,4.74-.79,2.51,1.42,4.62,3.27,4.44,6.41a85.44,85.44,0,0,1-1.32,8.55l5.21-.93c-.7-2.79-.38-5.21,2-6.62,1-.57,2.46-.25,3.71-.33a11.14,11.14,0,0,1-.75,3.07c-1.4,2.42-1,3.31,1.75,3.69,6.29.86,6.2.82,3.55,6.74-1.68,3.76-3.05,7.66-4.57,11.5l1,.7a31.21,31.21,0,0,0,4.24-3.67c2.57-3.15,5-6.45,7.29-9.8,1.31-1.87,2.24-4,3.48-5.94A55.38,55.38,0,0,1,374,457.4a7.62,7.62,0,0,1,4.62-2.1c4.59-.41,7.25,3.59,4.57,7.32-2.17,3-5.36,5.38-8.43,7.55-1.42,1-2.69,1.46-2.69,3.52,0,1.52-.73,3-.79,4.56a17.38,17.38,0,0,0,.64,3.71c1.1-.32,2.45-.34,3.24-1a56.92,56.92,0,0,0,6.29-6.23c2.68-3.16,5.12-6.53,7.66-9.81l.75.23c0,.6.25,1.39,0,1.76-4.18,5.39-8.2,10.92-12.74,16-3.22,3.6-7.67,2.76-10.19-1.33-.82-1.32-1.32-2.56-.22-4.23.88-1.34,1-3.18,1.42-4.73-4.12,4.51-8.06,9-12.22,13.26-1.39,1.43-3.33,3-5.52,1.48a5.45,5.45,0,0,1-2.09-6.48c1.36-4.17,3.06-8.23,4.61-12.33-3.57-1.74-7.26-.72-10.88.06-1,.21-1.79,1.43-2.56,2.29-2.47,2.76-4.58,5.95-7.4,8.26-4.86,4-9.42,2.72-12.28-2.91l-.72-1.41c-1.56,2-2.9,3.81-4.38,5.54-1.33,1.54-2.88,2.77-5.14,2s-3-2.36-3.43-4.44a18.16,18.16,0,0,1,1.54-11c.84-1.86,1.57-3.78,2.35-5.67l-.64-.37c-2.42,3.58-4.8,7.19-7.27,10.74-.95,1.36-1,4.08-3.73,3.07-1.56-.58-1.45-4.18-.58-6.34a75,75,0,0,0,3.38-11.13c-6,5.84-8.23,13.89-12.32,20.93-2.79-.38-3.92-2.29-4.32-5.44-2,2.52-3.59,4.6-5.25,6.62a32.87,32.87,0,0,1-3.29,3.67c-3.59,3.26-8.16,2.41-10.31-2a5.67,5.67,0,0,1,0-3.29c.38-1.9,1-3.76,1.52-5.63l-.68-.44a20.17,20.17,0,0,0-2.58,2.38c-3.85,5.08-7.56,10.28-11.47,15.33-1.38,1.78-2.9,3.84-5.73,2.56s-3.57-3.54-3.3-6.26c.3-2.94.91-5.86,1.5-9.46-1.77,2.27-3.12,4.12-4.6,5.86s-2.89,3.28-5.28,2.5-3.51-3.06-3.53-5.46c0-3.05.46-6.09.78-9.87-1.05,1.63-1.76,2.88-2.61,4-1.56,2.12-3.21,4.18-4.81,6.27-1.27,1.66-3.19,2.6-4.87,1.71-1.29-.67-1.94-2.64-2.79-4.08a7.64,7.64,0,0,1-.36-2c-1.92,2.44-3.44,4.72-5.3,6.66a36.91,36.91,0,0,1-6,5.08c-2.56,1.72-4.9,1-5.55-2a15.48,15.48,0,0,1,.53-7.32,80.88,80.88,0,0,1,3.87-9.08c-3.71-1.77-7.41-.79-11,0-1,.22-1.78,1.41-2.55,2.26-2.49,2.75-4.76,5.71-7.4,8.3-4.83,4.74-11.21,1.57-12.62-3.78-.14-.51-.36-1-.58-1.6-2.53,2.77-4.82,5.57-7.42,8a20,20,0,0,1-5.62,3.88c-3.24,1.41-5.73.22-6.53-3.24-.71-3-.69-6.24-1-9.79-1.73,2.16-3.31,4.2-5,6.18-1.34,1.59-2.74,3.14-4.19,4.63-3.91,4-9.95,0-10.45-4.2-.08-.69.6-1.47.9-2.22a5.59,5.59,0,0,0,.62-1.86c0-1.22-.22-2.44-.34-3.66-1,.64-2.21,1.07-2.88,1.94-3.06,4-5.88,8.25-9,12.27-1.57,2-3.26,4.77-6.33,3.67s-3.44-4.29-3.59-7.24c-.07-1.39,0-2.8,0-4.43-2.28,1.83-4.3,3.67-6.53,5.17-3.41,2.3-6.94.9-7.13-3.2A22.92,22.92,0,0,1,103,461.25c1.69-1.59,3.87-1.39,5.72.09,1,.82,1.92,1.8,3.1,2.92.33-.79.6-1.42.86-2.07,2.57-6.32,5-12.71,7.77-18.94a17.92,17.92,0,0,1,4-5.2c2.33-2.29,5.68-2.7,7.82-1.14,2.54,1.86,2.24,4.74,1.21,6.93a101.39,101.39,0,0,1-7.21,12.55c-2.54,3.85-6.15,7.1-8.1,11.19-1.83,3.85-2.22,8.43-3,12.73a30.38,30.38,0,0,0,0,5.4l1,.38a25.3,25.3,0,0,0,2.63-2.54c4.45-5.73,8.92-11.46,13.22-17.31,1.81-2.47,3-5.37,4.88-7.81s4.49-3.86,7.79-2.9,4.48,3.15,3.05,6.3a16.63,16.63,0,0,1-8.91,8.4c-1.78.77-2.59,1.63-2.72,3.53-.1,1.53-.78,3-.82,4.55a15.25,15.25,0,0,0,.79,3.68,11.13,11.13,0,0,0,3.22-1.11,22.66,22.66,0,0,0,5.11-4.63c3.58-5.1,6.79-10.48,10.28-15.65a29.44,29.44,0,0,1,5.33-6.51c2.68-2.17,5.3-1.1,6.3,2.29a12.52,12.52,0,0,1,.25,5.21c-.26,1.81-1.61,2.69-3.72,2.45.44-2.66.84-5.15,1.24-7.64l-.84-.39c-.58.53-1.37.95-1.7,1.61-3.19,6.47-5.73,13.17-5.93,20.5,0,1.29.75,2.61,1.16,3.91,1.18-.44,2.66-.56,3.47-1.38,3-3,5.88-6.17,8.61-9.44,2.18-2.62,3.66-5.95,6.17-8.12a62.43,62.43,0,0,0,10.44-10.8c1.1-1.54,3-1.68,4.77-.75,2.88,1.47,4.79,4.29,4.43,7.11-.31,2.5-.91,5-1.47,7.85l5.36-.92c-.86-2.77-.39-5.14,1.87-6.52,1-.61,2.6-.22,3.92-.28a11.85,11.85,0,0,1-.8,2.79c-1.52,2.59-1.13,3.46,1.9,3.82.54.06,1.09,0,1.64.08,3.49.35,4,1.25,2.67,4.47q-2.3,5.49-4.5,11c-.34.87-.52,1.81-.78,2.72l.71.59c1.42-1.2,3.15-2.17,4.18-3.64,4-5.66,7.63-11.53,11.57-17.2a21.66,21.66,0,0,1,4.68-4.92c3.25-2.43,5.18-1.79,6.95,1.88.33.68.61,1.39,1.05,2.39.66-.53,1.22-.95,1.76-1.41,1.39-1.18,2.87-1.69,4.42-.4s.89,2.6.38,4.18c-1.28,4.07-2.3,8.22-3.34,12.36a17.35,17.35,0,0,0,0,3.43,20.22,20.22,0,0,0,2.94-2.16c7.13-8.1,10.75-18,13.82-28.29H239.68l-.12-.78a20.7,20.7,0,0,1,2.94-.73,67.27,67.27,0,0,1,8.84-.56c2.66.11,3.72-1,4.78-3.35a86.43,86.43,0,0,1,6.3-11.17c2-3.06,4.81-3.29,7.87-1-2.9,4.72-5.8,9.46-9,14.73h9.27l.31.79a9.77,9.77,0,0,1-2.67,1.21c-1.93.24-4-.09-5.81.35a4.91,4.91,0,0,0-2.91,2.42c-1.84,3.84-3.39,7.84-5,11.77,0-.49-.09-1-.14-1.49l-.54-.13-3.81,11.05.33.1ZM111.58,468a17.75,17.75,0,0,0-2.42-3.68c-.51-.49-2.35-.5-2.68-.05a31.61,31.61,0,0,0-5.93,15.11c-.16,1.42.93,2.23,2.1,1.28C106.67,477.4,111.44,474.57,111.58,468Zm6.22-4.56,1.12.57c3.5-5.53,7.1-11,10.44-16.63a16.39,16.39,0,0,0,1.68-5.61c.14-.78-.6-1.71-.93-2.57a8.54,8.54,0,0,0-2.38,1.44,14,14,0,0,0-2.25,3.62C122.86,450.64,120.35,457.05,117.8,463.45Zm210.44,1.11c-1.28,3.23-2.78,6.63-3.92,10.16-.34,1-.09,3,.62,3.51s2.52.14,3.56-.41c3.64-1.9,5.7-5.25,7.37-8.45Zm-148.69,0c-1.25,3.22-2.73,6.71-3.93,10.3-.32,1-.14,2.92.43,3.23a4.35,4.35,0,0,0,3.54-.16c3.72-1.93,6-5.24,7.53-8.58Zm42.69,12.15,1.1.59c1.95-2.57,3.8-5.23,5.87-7.69s2.84-4.87,1.56-7.84c-.28-.64-.56-1.67-1-1.77a2.27,2.27,0,0,0-1.93.84C224.88,465.75,222.47,470.87,222.24,476.71Zm116.27-23.48c-3.65,1.8-7.28,8.25-6.45,11.56a3.59,3.59,0,0,0,2.37,2.1c.92.19,2.76-.35,2.94-.95a82.65,82.65,0,0,0,2.29-10.23C339.78,455,338.92,454.06,338.51,453.23Zm-147.24,3.29-1.39-3c-1,.49-2.52.72-2.94,1.53a54.43,54.43,0,0,0-3.66,8.66c-.53,1.64.43,2.9,2.32,3.27s3.06.05,3.55-1.84C189.87,462.41,190.51,459.64,191.27,456.52Zm87.84.36c-3.69,3-4.79,7-6.56,11.37C278.68,464.89,280.7,461.5,279.11,456.88Zm94.37,10.58.71.46c6-3.52,8.14-7.58,5-11.21C377.23,460.46,375.35,464,373.48,467.46ZM144.17,457.21c-3.06,2-5.66,6.74-6,10.7C143.88,464.59,145.58,461.7,144.17,457.21Z"/>
    <path d="M24,475.54c3-3.67,5.47-6.73,8-9.77a9.16,9.16,0,0,1,1.17-1.16c1.77-1.46,3.48-3.26,6.07-2.47,2.82.86,2.38,3.64,3,5.77a17.29,17.29,0,0,1,.3,2.5c3.23-2.1,6.51-3.61,7.7-7.54a6.2,6.2,0,0,1,2.2-3.21c1-.67,2.48-.58,3.75-.82.06,1.16.48,2.47.11,3.47-1.28,3.51-2.86,6.9-4.29,10.34a7.71,7.71,0,0,0-.77,2.52,28.08,28.08,0,0,0,.39,3.74A15.69,15.69,0,0,0,55,477.49a52.2,52.2,0,0,0,12.86-14c1.16-1.75,2.59-1.31,4-.65,1.7.79,1.69,2.08.9,3.58-1.62,3.06-3.21,6.14-4.81,9.22l.57.37,13.78-10.89.89,1a18.52,18.52,0,0,1-2.1,2.46C77,472.07,72.76,475.38,68.74,479a10.2,10.2,0,0,0-2.64,4.36c-2.77,8.61-5.11,17.39-10,25.12-2.06,3.23-4.21,4.12-7.47,3.22C44,510.4,42,506.3,44.52,502.18a93.49,93.49,0,0,1,7.63-10.35,28.4,28.4,0,0,1,5.61-5.56c5.52-3.81,6.06-9.86,7.83-16.19C63,472.73,61,475,58.65,477a32.52,32.52,0,0,1-6.76,4.48c-4,1.86-6.67-.38-6-4.81.37-2.37,1.12-4.67,1.7-7L47,469.1c-2.34,2.41-4.73,4.77-7,7.23-1.56,1.69-2.81,3.7-4.49,5.24a7.62,7.62,0,0,1-4.05,1.85c-.88.09-2.19-.92-2.72-1.8-.28-.46.52-1.93,1.2-2.54,1.11-1,2.7-1.51,3.75-2.56,3-3,3.16-7.16,4.44-10.85l-.94-.87c-1.39.78-3.28,1.23-4.08,2.42-3.19,4.7-6.14,9.57-9,14.52-1.27,2.22-2.95,2.83-4.38.69-1-1.53-2-3.71-1.77-5.4a171.74,171.74,0,0,1,4.14-21,117.88,117.88,0,0,1,7-17.48,140.91,140.91,0,0,1,7.31-12.64,9.45,9.45,0,0,1,2.28-2.36c3.61-2.85,7.52-1.64,8,2.94.35,3.84.2,8.17-1.22,11.65-3.47,8.46-8.75,15.75-16.64,20.78A5.53,5.53,0,0,0,26.7,462C25.69,466.25,25,470.59,24,475.54Zm4.48-20.18.63.42a46.66,46.66,0,0,0,3.65-3.22c5.09-5.46,10.44-10.82,11.76-18.68.52-3.06,1.23-6.26-1.25-9.52C34.63,433.23,33,445,28.47,455.36Zm31.76,32.11-1-.64c-3.61,4.81-7.33,9.55-10.76,14.48A9,9,0,0,0,47.38,506a3.17,3.17,0,0,0,1.55,2.55c.69.22,2.1-.58,2.63-1.34C55.77,501.23,57.86,494.28,60.23,487.47Z"/>
  </g>
</svg>
